<svg width="622" height="524" viewBox="0 0 622 524" fill="none" xmlns="http://www.w3.org/2000/svg">
<path d="M155.213 402.793H601.635C604.191 402.793 606.723 402.284 609.085 401.295C611.447 400.306 613.593 398.857 615.401 397.03C617.208 395.202 618.642 393.033 619.621 390.645C620.599 388.258 621.103 385.699 621.102 383.115V122.172C621.106 120.428 620.876 118.691 620.42 117.01C619.3 112.841 616.854 109.161 613.459 106.537C610.063 103.914 605.908 102.493 601.635 102.494H427.268C423.2 109.42 420.693 117.167 419.926 125.184C417.763 148.491 430.984 170.038 442.814 190.17C454.643 210.302 465.925 233.709 459.661 256.254C455.424 271.46 443.945 282.465 429.7 289.06C416.014 295.182 400.958 297.5 386.089 295.774C377.158 294.634 368.362 292.604 359.826 289.713C348.634 286.039 337.702 281.276 326.788 276.459C326.779 276.459 326.779 276.459 326.77 276.449C326.581 276.368 326.384 276.277 326.195 276.195C317.749 272.467 309.313 268.729 300.75 265.436C290.717 261.47 280.303 258.569 269.677 256.78C253.53 254.222 237.248 255.147 222.843 262.55C199.363 274.608 186.779 300.664 176.933 325.359C166.988 350.327 158.076 376.129 155.213 402.793Z" fill="#6C63FF"/>
<path d="M0.897705 302.969V383.115C0.897567 385.699 1.40101 388.258 2.37931 390.646C3.35761 393.033 4.7916 395.202 6.59938 397.03C8.40716 398.857 10.5533 400.307 12.9153 401.295C15.2773 402.284 17.8089 402.793 20.3655 402.793H94.5747C95.8582 390.699 94.7811 378.651 90.069 367.41C79.8011 342.896 54.957 328.399 31.2707 316.759C21.3169 311.869 11.1926 307.151 0.897705 302.969Z" fill="#6C63FF"/>
<path d="M78.667 384.285V384.285C78.667 389.504 80.718 394.51 84.369 398.2C88.0199 401.89 92.9716 403.964 98.1348 403.964H172.344C173.627 391.87 172.55 379.822 167.838 368.581C165.424 362.817 159.785 356.433 152.438 349.984C123.61 324.683 78.667 345.694 78.667 384.285Z" fill="#6C63FF"/>
<path d="M0 383.115V122.172C0.00611947 116.714 2.15371 111.482 5.97161 107.623C9.78952 103.764 14.966 101.593 20.3653 101.587H601.635C607.034 101.593 612.21 103.764 616.028 107.623C619.846 111.482 621.994 116.714 622 122.172V383.115C621.994 388.572 619.846 393.805 616.028 397.664C612.211 401.523 607.034 403.694 601.635 403.7H20.3653C14.9659 403.694 9.78939 401.523 5.97148 397.664C2.15356 393.805 0.0060268 388.572 0 383.115V383.115ZM20.3653 103.401C15.4419 103.407 10.7216 105.386 7.24025 108.905C3.75886 112.424 1.80059 117.195 1.79509 122.172V383.115C1.8005 388.091 3.75871 392.863 7.24011 396.382C10.7215 399.901 15.4418 401.88 20.3653 401.886H601.635C606.558 401.88 611.278 399.901 614.76 396.382C618.241 392.863 620.199 388.091 620.205 383.115V122.172C620.199 117.195 618.241 112.424 614.76 108.905C611.278 105.386 606.558 103.407 601.635 103.401H20.3653Z" fill="white"/>
<path d="M192.353 402.149H218.75C223.265 386.783 229.781 370.496 235.731 355.653C247.148 327.195 261.733 297.167 288.956 283.271C300.579 277.338 313.253 275.02 326.195 275.147C344.074 275.318 362.456 280.169 379.285 286.599C386.169 289.223 392.991 292.108 399.785 295.057C425.383 306.175 450.703 318.286 478.231 321.559C513.065 325.698 554.02 309.945 563.534 276.012C570.795 250.033 557.717 223.063 544.003 199.861C530.288 176.659 514.958 151.835 517.463 124.972C517.471 124.882 517.48 124.783 517.498 124.692C518.441 115.044 524.14 108.11 532.101 103.664H497.438C496.98 128.723 511.323 150.843 524.23 172.683C537.945 195.875 551.022 222.855 543.761 248.834C534.247 282.757 455.466 242.992 420.632 238.844C410.795 237.681 426.422 241.82 417.042 238.844C402.331 234.182 400.701 276.941 386.385 270.665C377.472 266.752 368.55 262.865 359.512 259.412C355.769 257.978 351.946 256.634 348.077 255.39C348.068 255.39 348.068 255.39 348.059 255.381C322.084 247.067 293.677 243.83 269.677 255.85C269.515 255.931 269.345 256.012 269.183 256.093C241.96 269.98 227.375 300.008 215.959 328.466C206.525 351.992 197.002 377.333 192.353 402.149Z" fill="#51506D"/>
<path d="M192.64 215.118H20.9466C19.5398 215.118 18.1905 215.683 17.1957 216.688C16.2009 217.694 15.6421 219.057 15.6421 220.48C15.6421 221.902 16.2009 223.265 17.1957 224.271C18.1905 225.276 19.5398 225.841 20.9466 225.841H192.64C194.047 225.841 195.396 225.276 196.391 224.271C197.385 223.265 197.944 221.902 197.944 220.48C197.944 219.057 197.385 217.694 196.391 216.688C195.396 215.683 194.047 215.118 192.64 215.118V215.118Z" fill="#51506D"/>
<path d="M74.2999 185.053H21.066C19.6592 185.053 18.3099 185.618 17.3151 186.624C16.3204 187.629 15.7615 188.993 15.7615 190.415C15.7615 191.837 16.3204 193.201 17.3151 194.206C18.3099 195.212 19.6592 195.777 21.066 195.777H74.2999C75.7067 195.777 77.056 195.212 78.0508 194.206C79.0455 193.201 79.6044 191.837 79.6044 190.415C79.6044 188.993 79.0455 187.629 78.0508 186.624C77.056 185.618 75.7067 185.053 74.2999 185.053H74.2999Z" fill="#51506D"/>
<path d="M279.585 498.919L268.703 498.826L263.886 455.414L279.945 455.551L279.585 498.919Z" fill="#FFB6B6"/>
<path d="M244.73 516.409C244.72 517.713 245.222 518.967 246.127 519.897C247.031 520.827 248.263 521.356 249.553 521.369L271.187 521.552L274.974 513.792L276.365 521.591L284.528 521.666L282.467 493.848L279.627 493.657L268.043 492.85L264.306 492.597L264.24 500.468L246.861 512.383C246.21 512.829 245.676 513.429 245.305 514.13C244.934 514.832 244.736 515.614 244.73 516.409V516.409Z" fill="#6C63FF"/>
<path d="M389.982 498.919L379.1 498.826L374.284 455.414L390.343 455.551L389.982 498.919Z" fill="#FFB6B6"/>
<path d="M355.128 516.409C355.119 517.713 355.621 518.967 356.525 519.897C357.429 520.827 358.662 521.356 359.951 521.369L381.586 521.552L385.373 513.792L386.764 521.591L394.927 521.666L392.866 493.848L390.026 493.657L378.442 492.85L374.704 492.597L374.639 500.468L357.26 512.383C356.609 512.829 356.075 513.429 355.704 514.13C355.332 514.832 355.135 515.614 355.128 516.409Z" fill="#6C63FF"/>
<path d="M266.161 151.257L315.133 113.161C317.203 111.54 318.56 109.162 318.911 106.54C319.262 103.917 318.578 101.26 317.008 99.1427C316.196 98.0471 315.172 97.1302 313.998 96.4479C312.823 95.7656 311.524 95.3321 310.179 95.174C308.833 95.0158 307.47 95.1362 306.172 95.528C304.875 95.9197 303.669 96.5745 302.63 97.4524L252.96 138.602L221.736 162.319C220.191 161.411 218.406 161.006 216.625 161.159C214.845 161.311 213.153 162.015 211.781 163.173C210.41 164.331 209.424 165.888 208.958 167.632C208.492 169.376 208.568 171.223 209.177 172.921C209.785 174.62 210.897 176.088 212.359 177.126C213.822 178.164 215.566 178.722 217.353 178.724C219.14 178.725 220.885 178.171 222.349 177.135C223.814 176.1 224.928 174.634 225.54 172.936L266.161 151.257Z" fill="#FFB6B6"/>
<path d="M306.075 160.015L303.917 208.747L377.233 217.714C371.464 198.133 362.004 170.935 366.339 157.307L306.075 160.015Z" fill="#A0616A"/>
<path d="M347.751 70.675H325.167L315.468 87.451L310.846 87.193C301.84 90.6995 298.249 94.3285 293.279 103.997L275.811 118.824L289.274 135.155C298.573 133.615 301.926 126.318 298.973 112.918C298.973 112.918 288.79 130.857 303.459 139.683C303.459 139.683 300.842 156.311 303.459 156.132C306.075 155.954 312.102 152.569 306.075 155.954C300.049 159.338 301.081 159.484 301.278 160.58C304.532 178.703 307.225 192.311 307.225 192.311L370.951 198.662C370.951 198.662 367.279 159.706 367.478 157.492C367.678 155.277 366.339 160.691 367.678 155.277C369.017 149.862 371.026 151.893 369.017 149.862C367.009 147.832 382.826 146.083 376.653 136.325L397.296 130.882L385.757 103.16C385.757 93.8004 370.885 86.2127 361.625 86.2127H360.439L347.751 70.675Z" fill="#E6E6E6"/>
<path d="M371.784 191.301C346.853 199.97 324.408 198.067 305.43 181.425C305.43 181.425 300.089 201.384 294.681 198.662C289.274 195.94 291.946 203.556 290.461 206.349C288.884 209.313 290.715 214.314 285.507 216.014C280.298 217.715 282.255 222.711 280.569 226.388C268.77 252.122 255.295 288.548 246.192 334.75C236.837 382.225 259.655 461.764 259.655 461.764L281.196 459.95L286.581 356.524L311.212 312.807C311.212 312.807 323.313 305.685 315.718 302.072C308.122 298.46 313.211 293.983 318.745 294.86C324.278 295.738 330.561 266.706 330.561 266.706C322.671 286.748 371.848 463.579 371.848 463.579L392.492 461.764L380.824 214.993L371.784 191.301Z" fill="#51506D"/>
<path d="M361.154 28.5587C363.603 34.7219 370.509 46.8421 371.445 53.4539L371.024 53.0354C370.22 54.4223 369.308 55.7415 368.294 56.9799C366.478 55.0518 364.284 53.5271 361.853 52.5031C363.181 55.2566 363.95 58.251 364.115 61.3096C359.618 65.2673 348.135 62.8795 342.398 64.9887C333.165 68.3747 323.363 69.5801 313.685 70.5811C310.249 70.9386 306.404 71.1556 303.996 69.1037C301.589 67.0518 303.023 63.252 301.728 60.378C292.502 39.9063 301.016 32.5203 308.25 23.2377C309.841 21.1949 309.835 18.1465 311.772 16.1975C314.459 13.4959 318.579 12.6649 322.378 11.9993C321.391 12.0518 320.407 11.8467 319.522 11.4038C318.636 10.9608 317.878 10.2949 317.321 9.47009C316.832 8.63912 316.58 7.68782 316.592 6.72115C316.605 5.75447 316.881 4.80997 317.39 3.9918C318.748 1.71537 321.571 0.391593 324.295 0.0608915C326.978 -0.123269 329.673 0.110906 332.285 0.755199C333.977 0.980187 335.616 1.50965 337.124 2.31853C337.835 2.70217 338.414 3.29618 338.782 4.02112C339.151 4.74607 339.291 5.56741 339.186 6.37535C338.959 7.12144 338.568 7.80613 338.043 8.37834C337.518 8.95055 336.871 9.39551 336.152 9.68006C335.056 10.1486 333.903 10.4677 332.723 10.629C338.141 9.91824 343.645 10.892 348.503 13.4207C354.59 16.703 358.698 22.3988 361.154 28.5587Z" fill="#6C63FF"/>
<path d="M328.192 63.1119C340.21 63.1119 349.952 53.2642 349.952 41.1165C349.952 28.9688 340.21 19.1211 328.192 19.1211C316.174 19.1211 306.432 28.9688 306.432 41.1165C306.432 53.2642 316.174 63.1119 328.192 63.1119Z" fill="#FFB6B6"/>
<path d="M349.131 29.3226C347.869 33.1769 344.264 34.4189 340.931 35.1935C339.88 35.4411 338.823 35.6718 337.756 35.877C337.363 35.3796 336.944 34.892 336.507 34.4311C334.69 32.503 332.497 30.9784 330.065 29.9544C331.117 32.1294 331.815 34.4611 332.135 36.8602C330.12 37.1557 328.094 37.3971 326.058 37.5846C324.334 37.9554 322.536 37.6427 321.034 36.7113C319.532 35.7798 318.442 34.3008 317.988 32.5798C316.134 35.645 313.941 38.5316 310.943 39.7492C309.228 40.3719 307.361 40.4231 305.616 39.8953C303.87 39.3675 302.338 38.2883 301.243 36.8161C299.447 34.6016 298.447 31.6267 297.728 28.7555C296.877 25.3423 296.404 21.4104 298.075 19.2448C299.414 17.4922 301.722 17.4607 303.853 17.6162C308.555 17.9808 313.207 18.8333 317.736 20.1604L318.119 21.0318C317.341 16.3051 319.029 11.7574 322.153 10.1401C324.26 9.05871 326.796 9.24003 329.259 9.4594C332.423 9.6021 335.549 10.2132 338.537 11.2732C341.965 12.6061 344.902 14.9772 346.946 18.0621C349.133 21.4175 350.219 25.9939 349.131 29.3226Z" fill="#6C63FF"/>
<path d="M318.11 8.76468C318.325 8.70061 317.769 8.78291 317.962 8.78813C317.866 8.78252 317.771 8.76904 317.677 8.74783C317.661 8.74461 317.444 8.67473 317.588 8.72606C317.265 8.62838 316.977 8.43821 316.758 8.17851C316.247 7.53958 315.846 6.81817 315.572 6.04457C315.226 5.02227 314.67 4.08544 313.941 3.29559C313.734 3.08543 313.481 2.92758 313.202 2.83484C312.924 2.7421 312.627 2.71708 312.337 2.76183C312.047 2.80658 311.772 2.91983 311.533 3.09238C311.294 3.26494 311.099 3.49193 310.964 3.75493C310.54 4.70252 310.927 5.87006 311.229 6.80074C311.541 7.76774 312.006 8.67754 312.604 9.49508C313.607 10.832 314.973 11.8451 316.536 12.4109C318.345 13.0749 320.317 13.1319 322.16 12.5734C322.404 12.4712 322.613 12.2997 322.762 12.0797C322.91 11.8597 322.993 11.6007 322.999 11.3343C323.004 11.0678 322.933 10.8054 322.794 10.5791C322.655 10.3527 322.454 10.1721 322.215 10.0594L319.14 8.78737C318.979 8.7154 318.804 8.67634 318.628 8.67244C318.451 8.66855 318.275 8.69988 318.11 8.76465C317.945 8.82943 317.795 8.92637 317.667 9.04996C317.539 9.17354 317.437 9.32135 317.366 9.48493C317.295 9.64851 317.256 9.82467 317.252 10.0033C317.248 10.182 317.279 10.3597 317.343 10.5263C317.407 10.6928 317.503 10.845 317.626 10.9741C317.748 11.1032 317.894 11.2067 318.056 11.2787L321.13 12.5506L321.185 10.0367C320.801 10.1486 320.406 10.2168 320.008 10.24C319.582 10.2831 319.153 10.2648 318.733 10.1857C318.331 10.1324 317.935 10.0349 317.554 9.89499C317.309 9.80478 317.07 9.70209 316.835 9.58732C316.75 9.54559 316.666 9.50226 316.583 9.45734C316.589 9.46058 316.231 9.25003 316.388 9.34896C315.99 9.09213 315.617 8.79839 315.274 8.47155C315.152 8.35565 315.041 8.22991 314.939 8.09561C314.764 7.87811 314.602 7.65047 314.453 7.41383C314.15 6.91273 313.91 6.37543 313.739 5.81435C313.661 5.57854 313.595 5.33878 313.541 5.09604C313.526 4.9628 313.503 4.83073 313.47 4.70077C313.356 4.3911 313.492 4.88159 313.36 5.01576L312.794 5.43786C312.687 5.46991 312.575 5.47734 312.465 5.4596C312.356 5.44185 312.251 5.39939 312.16 5.33535C312.093 5.23986 312.108 5.25569 312.204 5.38288C312.317 5.53255 312.419 5.68927 312.512 5.8521C312.715 6.23543 312.899 6.62894 313.062 7.0311C313.401 7.88641 313.828 8.70276 314.338 9.46627C314.838 10.2385 315.565 10.8317 316.418 11.1612C317.271 11.4907 318.204 11.5398 319.086 11.3014C319.417 11.1682 319.683 10.9089 319.826 10.5793C319.97 10.2498 319.979 9.87643 319.853 9.53984C319.718 9.20811 319.461 8.94213 319.136 8.79763C318.811 8.65313 318.444 8.64133 318.11 8.76468V8.76468Z" fill="#6C63FF"/>
<path d="M284.171 247.74C319.706 247.74 348.512 218.622 348.512 182.703C348.512 146.785 319.706 117.667 284.171 117.667C248.637 117.667 219.831 146.785 219.831 182.703C219.831 218.622 248.637 247.74 284.171 247.74Z" fill="white"/>
<path d="M284.171 248.647C271.269 248.647 258.655 244.779 247.927 237.533C237.199 230.287 228.837 219.989 223.899 207.939C218.961 195.889 217.669 182.63 220.187 169.839C222.704 157.047 228.917 145.297 238.041 136.075C247.164 126.852 258.789 120.572 271.444 118.027C284.099 115.483 297.216 116.789 309.137 121.78C321.057 126.771 331.246 135.223 338.415 146.067C345.583 156.911 349.41 169.661 349.41 182.703C349.39 200.186 342.511 216.948 330.28 229.31C318.05 241.673 301.468 248.627 284.171 248.647ZM284.171 118.575C271.624 118.575 259.357 122.336 248.924 129.382C238.491 136.429 230.359 146.444 225.558 158.162C220.756 169.881 219.499 182.775 221.947 195.215C224.395 207.654 230.438 219.081 239.31 228.05C248.183 237.018 259.488 243.126 271.795 245.6C284.101 248.075 296.858 246.805 308.45 241.951C320.043 237.097 329.951 228.877 336.923 218.331C343.894 207.785 347.615 195.387 347.615 182.703C347.596 165.701 340.905 149.401 329.011 137.378C317.118 125.356 300.992 118.594 284.171 118.575Z" fill="white"/>
<path d="M275.394 216.551C274.283 216.551 273.187 216.29 272.193 215.787C271.2 215.285 270.335 214.556 269.669 213.657L252.116 189.999C251.552 189.239 251.142 188.375 250.908 187.454C250.675 186.534 250.624 185.576 250.757 184.636C250.889 183.695 251.204 182.791 251.683 181.973C252.162 181.156 252.796 180.442 253.548 179.872C254.299 179.302 255.155 178.887 256.065 178.651C256.976 178.415 257.923 178.363 258.854 178.498C259.784 178.632 260.679 178.95 261.488 179.434C262.297 179.918 263.003 180.559 263.567 181.319L275.051 196.795L304.546 152.075C305.067 151.285 305.737 150.606 306.518 150.077C307.299 149.548 308.176 149.18 309.097 148.994C310.019 148.808 310.968 148.807 311.89 148.991C312.812 149.175 313.689 149.542 314.471 150.069C315.253 150.596 315.925 151.273 316.448 152.062C316.971 152.852 317.335 153.738 317.519 154.669C317.703 155.601 317.704 156.56 317.522 157.492C317.339 158.424 316.977 159.311 316.456 160.101L281.35 213.33C280.715 214.292 279.86 215.087 278.859 215.647C277.857 216.207 276.737 216.517 275.593 216.549C275.527 216.55 275.46 216.551 275.394 216.551Z" fill="#6C63FF"/>
<path d="M213.3 522.311C213.3 522.452 213.327 522.593 213.381 522.724C213.434 522.855 213.513 522.975 213.612 523.075C213.711 523.175 213.829 523.255 213.959 523.309C214.089 523.363 214.228 523.391 214.368 523.39H441.708C441.991 523.39 442.263 523.276 442.463 523.074C442.664 522.872 442.776 522.597 442.776 522.311C442.776 522.024 442.664 521.75 442.463 521.547C442.263 521.345 441.991 521.231 441.708 521.231H214.368C214.228 521.231 214.089 521.258 213.959 521.312C213.829 521.366 213.711 521.446 213.612 521.546C213.513 521.647 213.434 521.766 213.381 521.897C213.327 522.028 213.3 522.169 213.3 522.311Z" fill="#CCCCCC"/>
<path d="M414.587 184.927L393.554 126.193C392.656 123.707 390.827 121.678 388.461 120.543C386.096 119.409 383.384 119.26 380.911 120.129V120.129C379.632 120.578 378.456 121.286 377.456 122.21C376.457 123.133 375.653 124.253 375.096 125.5C374.538 126.748 374.237 128.097 374.212 129.466C374.187 130.835 374.438 132.195 374.95 133.462L398.648 193.796L411.519 231.071C410.194 232.283 409.27 233.879 408.873 235.64C408.476 237.402 408.625 239.244 409.3 240.917C409.974 242.59 411.142 244.012 412.645 244.991C414.147 245.969 415.911 246.456 417.697 246.386C419.483 246.316 421.205 245.692 422.627 244.599C424.05 243.505 425.106 241.996 425.65 240.275C426.194 238.554 426.202 236.706 425.671 234.98C425.139 233.255 424.096 231.737 422.682 230.633L414.587 184.927Z" fill="#FFB6B6"/>
<path d="M382.936 100.035L399.989 130.882C399.989 130.882 360.688 144.483 360.593 142.219C360.497 139.954 362.545 108.529 362.545 108.529L382.936 100.035Z" fill="#E6E6E6"/>
</svg>
