<svg width="2571" height="362" viewBox="0 0 2571 362" fill="none" xmlns="http://www.w3.org/2000/svg">
<path d="M2570.98 362L2509.56 353.118C2448.14 344.068 2325.31 326.303 2203.04 320.437C2080.49 314.571 1958.8 320.605 1836.25 310.884C1713.99 301.164 1591.15 275.355 1468.89 243.344C1346.34 211.167 1224.64 172.62 1102.09 185.693C979.829 198.932 856.993 263.623 734.729 300.493C612.179 337.364 490.486 346.414 367.936 332.671C245.671 318.929 122.836 282.729 61.4179 264.461L5.72205e-05 246.361V-9.53674e-06H61.4179C122.836 -9.53674e-06 245.671 -9.53674e-06 367.936 -9.53674e-06C490.486 -9.53674e-06 612.179 -9.53674e-06 734.729 -9.53674e-06C856.993 -9.53674e-06 979.829 -9.53674e-06 1102.09 -9.53674e-06C1224.64 -9.53674e-06 1346.34 -9.53674e-06 1468.89 -9.53674e-06C1591.15 -9.53674e-06 1713.99 -9.53674e-06 1836.25 -9.53674e-06C1958.8 -9.53674e-06 2080.49 -9.53674e-06 2203.04 -9.53674e-06C2325.31 -9.53674e-06 2448.14 -9.53674e-06 2509.56 -9.53674e-06H2570.98V362Z" fill="#8EE3C8" fill-opacity="0.5"/>
</svg>
