<svg width="2571" height="362" viewBox="0 0 2571 362" fill="none" xmlns="http://www.w3.org/2000/svg">
<path d="M2570.98 362L2509.56 353.118C2448.14 344.068 2325.31 326.303 2203.04 320.437C2080.49 314.571 1958.8 320.605 1836.25 310.884C1713.99 301.164 1591.15 275.355 1468.89 243.344C1346.34 211.167 1224.64 172.62 1102.09 185.693C979.829 198.932 856.994 263.623 734.729 300.493C612.179 337.364 490.486 346.414 367.936 332.671C245.671 318.929 122.836 282.729 61.418 264.461L0 246.361V0H61.418C122.836 0 245.671 0 367.936 0C490.486 0 612.179 0 734.729 0C856.994 0 979.829 0 1102.09 0C1224.64 0 1346.34 0 1468.89 0C1591.15 0 1713.99 0 1836.25 0C1958.8 0 2080.49 0 2203.04 0C2325.31 0 2448.14 0 2509.56 0H2570.98V362Z" fill="#8EE3C8"/>
</svg>
