<svg width="2573" height="257" viewBox="0 0 2573 257" fill="none" xmlns="http://www.w3.org/2000/svg">
<path d="M0 248.304L61.4661 232.785C122.932 217.266 245.864 186.228 368.225 184.366C490.871 182.504 612.66 209.817 735.306 207.086C857.667 204.479 980.599 171.703 1102.96 163.633C1225.61 155.563 1347.39 172.199 1470.04 186.228C1592.4 200.258 1715.33 211.928 1837.69 226.826C1960.34 241.724 2082.13 259.851 2204.78 256.623C2327.14 253.271 2450.07 228.44 2511.53 216.025L2573 203.61V0H2511.53C2450.07 0 2327.14 0 2204.78 0C2082.13 0 1960.34 0 1837.69 0C1715.33 0 1592.4 0 1470.04 0C1347.39 0 1225.61 0 1102.96 0C980.599 0 857.667 0 735.306 0C612.66 0 490.871 0 368.225 0C245.864 0 122.932 0 61.4661 0H0V248.304Z" fill="#8EE3C8" fill-opacity="0.5"/>
</svg>
