<svg width="1533" height="1762" viewBox="0 0 1533 1762" fill="none" xmlns="http://www.w3.org/2000/svg">
<g filter="url(#filter0_d_243_89)">
<path d="M321.522 0.751953H5.97096C4.88243 0.751953 4 1.63671 4 2.72811V1612.71C4 1613.8 4.88243 1614.68 5.97096 1614.68H321.522C322.61 1614.68 323.492 1613.8 323.492 1612.71V2.72811C323.492 1.63671 322.61 0.751953 321.522 0.751953Z" fill="#8EE3C8"/>
</g>
<g filter="url(#filter1_d_243_89)">
<path d="M1529 1532.61L1329.06 1753.02L720.841 1224.81L495.426 1028.69C495.139 1028.43 494.934 1028.08 494.833 1027.7C494.737 1027.4 494.742 1027.07 494.849 1026.77C494.956 1026.46 495.159 1026.2 495.426 1026.03L497.894 1023.85L718.669 831.292C719.089 830.956 719.611 830.772 720.15 830.772C720.688 830.772 721.211 830.956 721.631 831.292L904.392 989.983L1529 1532.61Z" fill="#8EE3C8"/>
</g>
<g filter="url(#filter2_d_243_89)">
<path d="M1529 154.92L877.172 989.76L693.647 1224.72L282.003 1752.01C281.699 1752.46 281.243 1752.79 280.716 1752.94C280.19 1753.08 279.628 1753.03 279.135 1752.8L5.03504 1614.53C4.7666 1614.42 4.53884 1614.22 4.38046 1613.98C4.22209 1613.73 4.1402 1613.44 4.1451 1613.15C4.04977 1612.97 4 1612.76 4 1612.56C4 1612.35 4.04977 1612.15 4.1451 1611.96L323.533 1208.22L466.912 1027.88L470.076 1023.93L874.7 512.342L1279.32 0.751953L1529 154.92Z" fill="#6C63FF"/>
</g>
<defs>
<filter id="filter0_d_243_89" x="0" y="0.751953" width="327.492" height="1621.93" filterUnits="userSpaceOnUse" color-interpolation-filters="sRGB">
<feFlood flood-opacity="0" result="BackgroundImageFix"/>
<feColorMatrix in="SourceAlpha" type="matrix" values="0 0 0 0 0 0 0 0 0 0 0 0 0 0 0 0 0 0 127 0" result="hardAlpha"/>
<feOffset dy="4"/>
<feGaussianBlur stdDeviation="2"/>
<feComposite in2="hardAlpha" operator="out"/>
<feColorMatrix type="matrix" values="0 0 0 0 0 0 0 0 0 0 0 0 0 0 0 0 0 0 0.25 0"/>
<feBlend mode="normal" in2="BackgroundImageFix" result="effect1_dropShadow_243_89"/>
<feBlend mode="normal" in="SourceGraphic" in2="effect1_dropShadow_243_89" result="shape"/>
</filter>
<filter id="filter1_d_243_89" x="490.765" y="830.772" width="1042.23" height="930.246" filterUnits="userSpaceOnUse" color-interpolation-filters="sRGB">
<feFlood flood-opacity="0" result="BackgroundImageFix"/>
<feColorMatrix in="SourceAlpha" type="matrix" values="0 0 0 0 0 0 0 0 0 0 0 0 0 0 0 0 0 0 127 0" result="hardAlpha"/>
<feOffset dy="4"/>
<feGaussianBlur stdDeviation="2"/>
<feComposite in2="hardAlpha" operator="out"/>
<feColorMatrix type="matrix" values="0 0 0 0 0 0 0 0 0 0 0 0 0 0 0 0 0 0 0.25 0"/>
<feBlend mode="normal" in2="BackgroundImageFix" result="effect1_dropShadow_243_89"/>
<feBlend mode="normal" in="SourceGraphic" in2="effect1_dropShadow_243_89" result="shape"/>
</filter>
<filter id="filter2_d_243_89" x="0" y="0.751953" width="1533" height="1760.27" filterUnits="userSpaceOnUse" color-interpolation-filters="sRGB">
<feFlood flood-opacity="0" result="BackgroundImageFix"/>
<feColorMatrix in="SourceAlpha" type="matrix" values="0 0 0 0 0 0 0 0 0 0 0 0 0 0 0 0 0 0 127 0" result="hardAlpha"/>
<feOffset dy="4"/>
<feGaussianBlur stdDeviation="2"/>
<feComposite in2="hardAlpha" operator="out"/>
<feColorMatrix type="matrix" values="0 0 0 0 0 0 0 0 0 0 0 0 0 0 0 0 0 0 0.25 0"/>
<feBlend mode="normal" in2="BackgroundImageFix" result="effect1_dropShadow_243_89"/>
<feBlend mode="normal" in="SourceGraphic" in2="effect1_dropShadow_243_89" result="shape"/>
</filter>
</defs>
</svg>
