<svg width="2448" height="2048" viewBox="0 0 2448 2048" fill="none" xmlns="http://www.w3.org/2000/svg">
<path d="M1610.44 0H899.092C788.456 0 698.767 90.3012 698.767 201.693V1838.31C698.767 1949.7 788.456 2040 899.092 2040H1610.44C1721.08 2040 1810.77 1949.7 1810.77 1838.31V201.693C1810.77 90.3012 1721.08 0 1610.44 0Z" fill="#51506D"/>
<path d="M1792.01 201.707V1838.31C1791.95 1886.78 1772.8 1933.24 1738.76 1967.51C1704.73 2001.79 1658.58 2021.06 1610.44 2021.12H899.099C850.961 2021.06 804.811 2001.79 770.772 1967.51C736.733 1933.24 717.585 1886.78 717.53 1838.31V201.707C717.586 153.24 736.733 106.774 770.772 72.5027C804.811 38.2313 850.961 18.953 899.099 18.8969H992.118V51.2484C992.119 65.8946 997.898 79.9405 1008.18 90.2969C1018.47 100.653 1032.42 106.472 1046.97 106.473H1462.57C1477.12 106.472 1491.07 100.653 1501.35 90.2969C1511.64 79.9405 1517.42 65.8946 1517.42 51.2484V18.8969H1610.44C1658.58 18.953 1704.73 38.2313 1738.76 72.5027C1772.8 106.774 1791.95 153.24 1792.01 201.707V201.707Z" fill="white"/>
<path d="M693.651 413.839C690.033 413.834 686.565 412.386 684.008 409.81C681.45 407.235 680.011 403.743 680.007 400.101V372.626C680.007 368.983 681.444 365.489 684.003 362.913C686.562 360.336 690.032 358.889 693.651 358.889C697.27 358.889 700.74 360.336 703.299 362.913C705.858 365.489 707.295 368.983 707.295 372.626V400.101C707.291 403.743 705.852 407.235 703.294 409.81C700.736 412.386 697.268 413.834 693.651 413.839V413.839Z" fill="#51506D"/>
<path d="M693.651 554.72C690.033 554.716 686.565 553.268 684.008 550.692C681.45 548.117 680.011 544.625 680.007 540.983V465.354C680.007 461.71 681.444 458.216 684.003 455.64C686.562 453.064 690.032 451.616 693.651 451.616C697.27 451.616 700.74 453.064 703.299 455.64C705.858 458.216 707.295 461.71 707.295 465.354V540.983C707.291 544.625 705.852 548.117 703.294 550.692C700.736 553.268 697.268 554.716 693.651 554.72V554.72Z" fill="#51506D"/>
<path d="M693.651 667.98C690.033 667.976 686.565 666.527 684.008 663.952C681.45 661.377 680.011 657.885 680.007 654.243V578.613C680.007 574.97 681.444 571.476 684.003 568.9C686.562 566.323 690.032 564.876 693.651 564.876C697.27 564.876 700.74 566.323 703.299 568.9C705.858 571.476 707.295 574.97 707.295 578.613V654.243C707.291 657.885 705.852 661.377 703.294 663.952C700.736 666.527 697.268 667.976 693.651 667.98V667.98Z" fill="#51506D"/>
<path d="M1812.47 606.162C1808.85 606.158 1805.39 604.709 1802.83 602.134C1800.27 599.558 1798.83 596.066 1798.83 592.424V407.885C1798.83 404.242 1800.26 400.748 1802.82 398.172C1805.38 395.595 1808.85 394.148 1812.47 394.148C1816.09 394.148 1819.56 395.595 1822.12 398.172C1824.68 400.748 1826.12 404.242 1826.12 407.885V592.424C1826.11 596.066 1824.67 599.558 1822.11 602.134C1819.56 604.709 1816.09 606.158 1812.47 606.162V606.162Z" fill="#51506D"/>
<path d="M1284.08 63.0058H1178.33C1176.07 63.0058 1173.9 62.1012 1172.3 60.4911C1170.7 58.8809 1169.81 56.6971 1169.81 54.42C1169.81 52.1429 1170.7 49.959 1172.3 48.3489C1173.9 46.7387 1176.07 45.8341 1178.33 45.8341H1284.08C1286.34 45.8341 1288.51 46.7387 1290.11 48.3489C1291.71 49.959 1292.6 52.1429 1292.6 54.42C1292.6 56.6971 1291.71 58.8809 1290.11 60.4911C1288.51 62.1012 1286.34 63.0058 1284.08 63.0058Z" fill="white"/>
<path d="M1338.65 61.2886C1342.42 61.2886 1345.47 58.2134 1345.47 54.42C1345.47 50.6265 1342.42 47.5513 1338.65 47.5513C1334.89 47.5513 1331.83 50.6265 1331.83 54.42C1331.83 58.2134 1334.89 61.2886 1338.65 61.2886Z" fill="white"/>
<path d="M2158.34 1954.2C2160.83 1954.29 2163.29 1953.61 2165.38 1952.25C2167.48 1950.89 2169.1 1948.91 2170.04 1946.58C2170.98 1944.26 2171.19 1941.7 2170.64 1939.25C2170.08 1936.81 2168.8 1934.59 2166.95 1932.9C2166.63 1931.68 2166.4 1930.8 2166.09 1929.58C2168.41 1923.46 2172.5 1918.18 2177.82 1914.42C2183.15 1910.65 2189.47 1908.58 2195.97 1908.45C2202.47 1908.33 2208.87 1910.16 2214.33 1913.72C2219.79 1917.28 2224.07 1922.4 2226.63 1928.42C2241.36 1962.24 2260.33 1997.21 2251.41 2034.69C2311.43 1903.4 2289.06 1741.03 2197.48 1630.12C2172.33 1616.49 2151.82 1592.03 2146.27 1563.45C2158.69 1567.55 2174.04 1557.26 2164.6 1544.22C2160.52 1539.24 2156.4 1534.3 2152.31 1529.32C2198.87 1478.43 2255.67 1557.16 2204.54 1625.74C2221.68 1646.95 2236.57 1669.92 2248.96 1694.25C2245.91 1668.31 2249.01 1642.02 2258.02 1617.52C2267.17 1594.69 2284.54 1575.37 2299.81 1555.55C2318.38 1531.42 2357.16 1542.1 2359.98 1572.48C2342.69 1578.38 2340.67 1603.63 2360.55 1606.89C2355.88 1663.5 2319.68 1715.83 2269.36 1741.12C2288.53 1793.68 2296.35 1849.74 2292.3 1905.58C2300.61 1840.29 2369.98 1823.8 2418.32 1797.41C2421.39 1795.39 2424.99 1794.31 2428.66 1794.3C2432.34 1794.29 2435.93 1795.36 2439.01 1797.38C2442.09 1799.4 2444.52 1802.28 2446 1805.66C2447.49 1809.04 2447.96 1812.79 2447.37 1816.44C2440.69 1819.25 2434.3 1822.72 2428.3 1826.8C2425.49 1828.74 2423.35 1831.51 2422.16 1834.73C2420.98 1837.95 2420.81 1841.46 2421.68 1844.77C2422.55 1848.09 2424.42 1851.06 2427.03 1853.26C2429.64 1855.47 2432.87 1856.81 2436.27 1857.1C2412.35 1918.36 2349.42 1959.95 2284.38 1960.35C2278.39 1987.75 2269.58 2014.45 2258.11 2040.03L2161.58 2040.95C2161.22 2039.87 2160.9 2038.76 2160.58 2037.69C2169.52 2038.17 2178.49 2037.54 2187.28 2035.83C2163.37 2007.88 2144.95 1993.67 2158.34 1954.2L2158.34 1954.2Z" fill="#F2F2F2"/>
<path d="M289.927 1954.2C287.436 1954.29 284.978 1953.61 282.885 1952.25C280.791 1950.89 279.165 1948.91 278.225 1946.58C277.286 1944.26 277.078 1941.7 277.632 1939.25C278.185 1936.81 279.472 1934.59 281.318 1932.9C281.636 1931.68 281.865 1930.8 282.182 1929.58C279.857 1923.46 275.771 1918.18 270.447 1914.42C265.122 1910.65 258.803 1908.58 252.299 1908.45C245.795 1908.33 239.402 1910.16 233.94 1913.72C228.478 1917.28 224.195 1922.4 221.642 1928.42C206.914 1962.24 187.936 1997.21 196.855 2034.69C136.841 1903.4 159.208 1741.03 250.784 1630.12C275.936 1616.49 296.449 1592.03 301.999 1563.45C289.576 1567.55 274.233 1557.26 283.668 1544.22C287.751 1539.24 291.873 1534.3 295.956 1529.32C249.395 1478.43 192.6 1557.16 243.731 1625.74C226.592 1646.95 211.702 1669.92 199.306 1694.25C202.361 1668.31 199.256 1642.02 190.247 1617.52C181.098 1594.69 163.727 1575.37 148.457 1555.55C129.89 1531.42 91.1068 1542.1 88.2905 1572.48C105.58 1578.38 107.594 1603.63 87.7226 1606.89C92.3839 1663.5 128.593 1715.83 178.906 1741.12C159.74 1793.68 151.92 1849.74 155.967 1905.58C147.661 1840.29 78.2933 1823.8 29.9485 1797.41C26.8748 1795.39 23.2818 1794.31 19.6078 1794.3C15.9337 1794.29 12.3375 1795.36 9.25775 1797.38C6.17801 1799.4 3.74788 1802.28 2.26381 1805.66C0.779747 1809.04 0.305883 1812.79 0.900045 1816.44C7.58045 1819.25 13.9671 1822.72 19.966 1826.8C22.7766 1828.74 24.9219 1831.51 26.1078 1834.73C27.2936 1837.95 27.4621 1841.46 26.5899 1844.77C25.7178 1848.09 23.8478 1851.06 21.2363 1853.26C18.6248 1855.47 15.3996 1856.81 12.0028 1857.1C35.9179 1918.36 98.8531 1959.95 163.891 1960.35C169.883 1987.75 178.686 2014.45 190.161 2040.03L286.688 2040.95C287.044 2039.87 287.366 2038.76 287.688 2037.69C278.748 2038.17 269.783 2037.54 260.994 2035.83C284.899 2007.88 303.316 1993.67 289.93 1954.2L289.927 1954.2Z" fill="#F2F2F2"/>
<path d="M951.477 99.8469H859.379C854.856 99.8469 850.518 98.0377 847.319 94.8174C844.121 91.5971 842.324 87.2294 842.324 82.6751C842.324 78.1209 844.121 73.7532 847.319 70.5329C850.518 67.3126 854.856 65.5034 859.379 65.5034H951.477C956.001 65.5034 960.339 67.3126 963.537 70.5329C966.736 73.7532 968.532 78.1209 968.532 82.6751C968.532 87.2294 966.736 91.5971 963.537 94.8174C960.339 98.0377 956.001 99.8469 951.477 99.8469Z" fill="#E6E6E6"/>
<path d="M1555.23 98.1297C1563.71 98.1297 1570.58 91.2104 1570.58 82.6751C1570.58 74.1398 1563.71 67.2206 1555.23 67.2206C1546.75 67.2206 1539.88 74.1398 1539.88 82.6751C1539.88 91.2104 1546.75 98.1297 1555.23 98.1297Z" fill="#E6E6E6"/>
<path d="M1602.99 98.1297C1611.46 98.1297 1618.34 91.2104 1618.34 82.6751C1618.34 74.1398 1611.46 67.2206 1602.99 67.2206C1594.51 67.2206 1587.64 74.1398 1587.64 82.6751C1587.64 91.2104 1594.51 98.1297 1602.99 98.1297Z" fill="#E6E6E6"/>
<path d="M1650.74 98.1297C1659.22 98.1297 1666.09 91.2104 1666.09 82.6751C1666.09 74.1398 1659.22 67.2206 1650.74 67.2206C1642.26 67.2206 1635.39 74.1398 1635.39 82.6751C1635.39 91.2104 1642.26 98.1297 1650.74 98.1297Z" fill="#E6E6E6"/>
<path d="M1544.5 339.853H965.646C954.433 339.868 943.683 344.36 935.754 352.343C927.826 360.326 923.364 371.149 923.349 382.439V761.281C923.364 772.571 927.826 783.394 935.754 791.377C943.683 799.36 954.433 803.852 965.646 803.867H1544.5C1555.71 803.857 1566.47 799.367 1574.4 791.383C1582.33 783.399 1586.79 772.573 1586.8 761.281V382.439C1586.79 371.147 1582.33 360.321 1574.4 352.337C1566.47 344.352 1555.71 339.862 1544.5 339.853V339.853Z" fill="#F2F2F2"/>
<path d="M1363.28 501.582C1310.97 594.703 1253.24 684.633 1190.4 770.903H1099.63C1159.09 697.973 1218.59 625.043 1278.13 552.113C1295.22 531.114 1313.75 509.115 1339.38 500.583L1363.28 501.582Z" fill="#3F3D56"/>
<path d="M1242.64 486.65C1233.17 496.583 1224.1 506.915 1215.56 517.648C1196.76 540.447 1178.22 563.446 1159.61 586.378C1148.03 600.644 1136.44 614.91 1124.99 629.176C1121.35 626.824 1117.9 624.194 1114.66 621.31C1096.36 605.322 1085.01 582.755 1083.05 558.445C1081.08 534.134 1088.64 510.014 1104.13 491.254C1119.61 472.493 1141.77 460.584 1165.87 458.079C1189.97 455.573 1214.08 462.671 1233.04 477.85C1236.46 480.534 1239.67 483.475 1242.64 486.65V486.65Z" fill="#6C63FF"/>
<path d="M1586.8 475.818V489.659L1580.66 487.392L1494.25 455.59C1466.11 445.253 1438.04 433.439 1408.98 425.986C1383.69 418.704 1356.84 419.05 1331.75 426.982C1309.39 435.313 1288.92 448.104 1271.58 464.588C1263.91 471.731 1256.47 479.047 1249.27 486.637C1246.92 489.144 1244.57 491.651 1242.25 494.158C1235.29 501.782 1228.57 509.578 1222.19 517.649C1203.4 540.453 1184.84 563.463 1166.25 586.37C1154.65 600.657 1143.05 614.909 1131.59 629.162C1093.32 676.315 1055.28 723.561 1017.46 770.897C1012.37 770.84 1007.3 770.194 1002.35 768.974C1040.93 720.721 1079.69 672.595 1118.63 624.594C1119.52 623.495 1120.4 622.396 1121.29 621.297C1125.86 615.562 1130.54 609.792 1135.17 604.057C1154.58 580.119 1174 556.205 1193.43 532.313C1207.56 514.936 1221.58 497.489 1236.79 481.004C1237.71 479.94 1238.67 478.909 1239.65 477.845C1241.12 476.265 1242.59 474.719 1244.09 473.105C1277.14 438.727 1318.38 408.334 1367.77 407.509C1396.84 407.063 1424.91 416.336 1451.92 426.124C1481.02 436.736 1510.01 447.52 1539.08 458.235L1586.8 475.818Z" fill="#3F3D56"/>
<path d="M1600.41 1640.31H909.13C897.917 1640.29 887.167 1635.8 879.238 1627.82C871.309 1619.84 866.849 1609.01 866.836 1597.72V1503.92C866.849 1492.63 871.309 1481.81 879.238 1473.82C887.167 1465.84 897.917 1461.35 909.13 1461.34H1600.41C1611.62 1461.35 1622.37 1465.84 1630.3 1473.82C1638.23 1481.81 1642.69 1492.63 1642.7 1503.92V1597.72C1642.69 1609.01 1638.23 1619.84 1630.3 1627.82C1622.37 1635.8 1611.62 1640.29 1600.41 1640.31Z" fill="#F2F2F2"/>
<path d="M1600.41 1159.5H909.13C897.917 1159.48 887.167 1154.99 879.238 1147.01C871.309 1139.03 866.849 1128.2 866.836 1116.91V1023.11C866.849 1011.82 871.309 1001 879.238 993.016C887.167 985.033 897.917 980.543 909.13 980.53H1600.41C1611.62 980.543 1622.37 985.033 1630.3 993.016C1638.23 1001 1642.69 1011.82 1642.7 1023.11V1116.91C1642.69 1128.2 1638.23 1139.03 1630.3 1147.01C1622.37 1154.99 1611.62 1159.48 1600.41 1159.5V1159.5Z" fill="#F2F2F2"/>
<path d="M1600.41 1399.9H909.13C897.917 1399.89 887.167 1395.4 879.238 1387.41C871.309 1379.43 866.849 1368.61 866.836 1357.32V1263.52C866.849 1252.23 871.309 1241.4 879.238 1233.42C887.167 1225.44 897.917 1220.95 909.13 1220.93H1600.41C1611.62 1220.95 1622.37 1225.44 1630.3 1233.42C1638.23 1241.4 1642.69 1252.23 1642.7 1263.52V1357.32C1642.69 1368.61 1638.23 1379.43 1630.3 1387.41C1622.37 1395.4 1611.62 1399.89 1600.41 1399.9V1399.9Z" fill="#F2F2F2"/>
<path d="M1338.75 1534.77H1135.07C1132.66 1534.77 1130.34 1533.8 1128.63 1532.08C1126.92 1530.36 1125.96 1528.03 1125.96 1525.59C1125.96 1523.16 1126.92 1520.83 1128.63 1519.11C1130.34 1517.39 1132.66 1516.42 1135.07 1516.42H1338.75C1341.17 1516.42 1343.49 1517.39 1345.2 1519.11C1346.9 1520.83 1347.86 1523.16 1347.86 1525.59C1347.86 1528.03 1346.9 1530.36 1345.2 1532.08C1343.49 1533.8 1341.17 1534.77 1338.75 1534.77V1534.77Z" fill="white"/>
<path d="M1534.65 1585.22H1132.8C1130.38 1585.22 1128.06 1584.26 1126.35 1582.54C1124.64 1580.82 1123.68 1578.48 1123.68 1576.05C1123.68 1573.62 1124.64 1571.28 1126.35 1569.56C1128.06 1567.84 1130.38 1566.88 1132.8 1566.88H1534.65C1537.07 1566.88 1539.38 1567.84 1541.09 1569.56C1542.8 1571.28 1543.76 1573.62 1543.76 1576.05C1543.76 1578.48 1542.8 1580.82 1541.09 1582.54C1539.38 1584.26 1537.07 1585.22 1534.65 1585.22V1585.22Z" fill="white"/>
<path d="M1026.87 1612.33C1060.61 1612.33 1087.96 1584.79 1087.96 1550.82C1087.96 1516.85 1060.61 1489.31 1026.87 1489.31C993.127 1489.31 965.776 1516.85 965.776 1550.82C965.776 1584.79 993.127 1612.33 1026.87 1612.33Z" fill="white"/>
<path d="M1013.25 1633.9C1007.02 1630.97 999.895 1630.6 993.395 1632.88C986.896 1635.15 981.534 1639.89 978.452 1646.09C977.845 1647.35 977.344 1648.67 976.953 1650.02L884.96 1655.56L871.326 1703.55L996.531 1682.25C1002.23 1683.44 1008.15 1682.71 1013.39 1680.16C1018.63 1677.61 1022.88 1673.38 1025.48 1668.14C1026.93 1665.15 1027.78 1661.89 1027.99 1658.57C1028.19 1655.24 1027.74 1651.9 1026.66 1648.75C1025.59 1645.6 1023.9 1642.69 1021.71 1640.2C1019.52 1637.7 1016.86 1635.66 1013.88 1634.2C1013.67 1634.1 1013.46 1634 1013.25 1633.9Z" fill="#FFB6B6"/>
<path d="M810.198 1397.21C804.136 1394.71 797.611 1393.56 791.067 1393.83C784.522 1394.1 778.112 1395.78 772.272 1398.76C766.432 1401.75 761.299 1405.97 757.222 1411.13C753.146 1416.29 750.221 1422.27 748.646 1428.68L723.355 1531.51L728.112 1711.41C728.112 1711.41 860.126 1736.92 882.288 1720.52C904.45 1704.13 902.369 1691.93 904.45 1704.13C906.531 1716.33 916.043 1721.46 916.175 1716.6C916.307 1711.75 917.383 1712.58 922.906 1711.11C928.429 1709.65 952.803 1700.61 952.803 1700.61L953.895 1649.31C953.895 1649.31 913.598 1633.93 903.822 1638.52C894.046 1643.11 905.903 1650.72 894.046 1643.11C882.189 1635.49 880.893 1611.46 878.866 1633.12C876.838 1654.78 870.903 1658.81 862.013 1649.18C853.124 1639.55 811.938 1645.7 811.938 1645.7L838.146 1445.72C839.464 1435.66 837.437 1425.45 832.381 1416.67C827.325 1407.9 819.525 1401.05 810.198 1397.21V1397.21Z" fill="#6C63FF"/>
<path d="M1699.23 1930.71L1700.62 1892.83L1556.16 1869.41L1554.11 1925.32L1699.23 1930.71Z" fill="#FFB6B6"/>
<path d="M1673.01 1942.12L1671.64 1881.46L1697.39 1882.42L1738.97 1826.35C1741.02 1823.58 1743.9 1821.54 1747.19 1820.54C1750.47 1819.53 1753.99 1819.61 1757.22 1820.76C1760.46 1821.91 1763.25 1824.07 1765.18 1826.93C1767.11 1829.78 1768.08 1833.19 1767.96 1836.64L1765.32 1908.69L1739.39 1920.17L1764.68 1925.96L1763.69 1953.13L1673.01 1942.12Z" fill="#51506D"/>
<path d="M886.18 2017.58L1343.75 1964.01C1343.75 1964.01 1541.34 1975.5 1587.7 1945.14L1636.59 1938.92L1639.24 1866.62C1639.24 1866.62 1609.34 1866.84 1592.15 1858.78C1574.97 1850.72 1586.91 1840.85 1570.52 1850.55C1554.14 1860.25 1555.87 1861.42 1543.2 1856.96C1530.53 1852.5 949.507 1828.59 949.507 1828.59L886.18 2017.58Z" fill="#51506D"/>
<path d="M1489.13 1986.21L1515.74 1959.39L1425.65 1843.3L1386.39 1882.88L1489.13 1986.21Z" fill="#FFB6B6"/>
<path d="M1462.2 1976.61L1502.17 1931.21L1520.4 1949.55L1588.76 1936.91C1592.14 1936.29 1595.62 1936.76 1598.71 1938.28C1601.8 1939.79 1604.32 1942.25 1605.92 1945.31C1607.52 1948.37 1608.1 1951.87 1607.59 1955.28C1607.07 1958.7 1605.48 1961.86 1603.06 1964.31L1552.45 2015.32L1525.69 2005.97L1540.32 2027.54L1521.24 2046.78L1462.2 1976.61Z" fill="#51506D"/>
<path d="M705.656 1765.28L710.205 1871.74C715.561 1997.07 852.648 2072.93 958.949 2007.49C960.908 2006.28 962.874 2005.03 964.846 2003.74C964.846 2003.74 1005.15 1992.84 1003.92 1975.59C1002.7 1958.33 1012.54 1949.93 1021.26 1954.64C1029.97 1959.35 1144.04 1796.35 1144.04 1796.35C1144.04 1796.35 1381.04 1915.38 1433.33 1943.4L1488.5 1928.27C1488.5 1928.27 1509.26 1938.14 1501.78 1923.86C1494.3 1909.58 1492.96 1916.42 1490.66 1900.86C1488.37 1885.3 1482.49 1866.01 1478.92 1866.83C1475.36 1867.64 1185.72 1663.53 1185.72 1663.53C1185.72 1663.53 1138.54 1615.45 1080 1647.19C1078.78 1651.86 1079.83 1652.02 1079.83 1652.02L886.474 1810.65L859.153 1758.41L705.656 1765.28Z" fill="#51506D"/>
<path d="M835.613 1374.1L752.712 1334.98L727.892 1378.46C727.892 1378.46 661.235 1474.23 660.268 1543.32C659.301 1612.42 671.131 1632.96 671.131 1632.96C671.131 1632.96 642.39 1654.6 656.76 1667.82C671.131 1681.04 702.944 1686.75 678.51 1692.48C654.075 1698.21 660.268 1756.25 687.556 1766.56C714.844 1776.86 861.397 1776.77 861.397 1776.77C860.079 1772.27 859.982 1767.5 861.116 1762.95C862.249 1758.4 864.572 1754.23 867.843 1750.89C879.204 1739.43 889.437 1747.65 879.204 1729.8C868.971 1711.95 851.916 1722.25 865.56 1698.21C879.204 1674.17 879.199 1666.99 879.199 1666.99C879.199 1666.99 907.014 1613.69 865.118 1555.87C862.564 1552.35 864.711 1552.21 864.711 1552.21L830.881 1438.07L835.613 1374.1Z" fill="#6C63FF"/>
<path d="M702.014 1209.61C702.715 1227.24 691.679 1252.22 686.245 1267.29C680.435 1283.39 705.617 1304.76 721.735 1309.45C722.574 1303.87 725.338 1298.76 729.542 1295.03C728.38 1300.35 728.279 1305.85 729.244 1311.2L865.508 1342.44C890.022 1313.85 914.671 1272.76 909.294 1223.21C910.581 1213.8 909.079 1204.21 904.977 1195.66C900.874 1187.1 894.353 1179.96 886.232 1175.12L817.344 1134.15C788.043 1127.44 751.143 1123.38 729.979 1141.63C720.523 1150.1 713.094 1160.62 708.251 1172.39C703.408 1184.17 701.275 1196.89 702.014 1209.61V1209.61Z" fill="#51506D"/>
<path d="M823.813 1327.33C867.142 1327.33 902.267 1291.97 902.267 1248.34C902.267 1204.72 867.142 1169.35 823.813 1169.35C780.484 1169.35 745.359 1204.72 745.359 1248.34C745.359 1291.97 780.484 1327.33 823.813 1327.33Z" fill="#FFB6B6"/>
<path d="M731.904 1206.14L728.118 1222.89L794.304 1238.06C794.363 1234.67 795.117 1231.34 796.517 1228.26C797.918 1225.18 799.935 1222.42 802.443 1220.17C801.016 1226.73 801.179 1233.55 802.919 1240.03C838.613 1260.2 870.785 1267.34 899.634 1262.2C903.542 1263.1 907.644 1262.39 911.037 1260.24C914.43 1258.1 916.836 1254.68 917.726 1250.74V1250.74C929.333 1199.41 898.924 1146.94 848.188 1134.2C835.855 1131.09 823.031 1130.5 810.467 1132.45C797.904 1134.4 785.854 1138.86 775.023 1145.56C764.192 1152.26 754.8 1161.07 747.395 1171.47C739.991 1181.88 734.724 1193.67 731.904 1206.15V1206.14Z" fill="#51506D"/>
<path d="M770.6 1095.68C779.328 1093.77 788.563 1094.23 796.454 1088.28L791.279 1100.24C805.627 1096.28 820.922 1097.82 834.208 1104.56C838.159 1106.34 841.528 1109.21 843.927 1112.84C845.216 1115.03 846 1117.49 846.222 1120.03C846.443 1122.56 846.096 1125.12 845.206 1127.5C844.357 1129.55 843.095 1131.39 841.498 1132.92C839.902 1134.45 838.007 1135.62 835.934 1136.37C832.261 1137.48 828.412 1137.89 824.59 1137.56C808.482 1137.19 792.375 1136.81 776.268 1136.43C770.129 1136.81 763.995 1135.61 758.447 1132.94C755.497 1131.11 753.143 1128.45 751.674 1125.28C750.205 1122.12 749.685 1118.6 750.178 1115.14C751.715 1104.27 761.873 1097.58 770.6 1095.68Z" fill="#51506D"/>
<path d="M1196.18 1714.75C1195.99 1714.53 1195.78 1714.33 1195.54 1714.16C1194.95 1713.47 1194.24 1712.91 1193.43 1712.5L1187.69 1709.41L1149.58 1666.81C1147.37 1665.65 1144.81 1665.4 1142.42 1666.12L1142.33 1666.15L1126 1671.23L1111.96 1675.62L1092.34 1681.74L958.747 1723.39L870.93 1750.77C868.556 1751.52 866.572 1753.19 865.405 1755.4C864.237 1757.62 863.981 1760.2 864.69 1762.61C865.102 1763.93 865.785 1765.15 866.695 1766.19L869.489 1769.33L875.351 1775.9L888.93 1804.23L892.698 1808.47C893.899 1809.82 895.456 1810.79 897.187 1811.28C898.918 1811.77 900.752 1811.75 902.474 1811.23L1191.78 1730.23C1193.28 1729.74 1194.64 1728.89 1195.74 1727.74C1196.84 1726.6 1197.64 1725.2 1198.07 1723.67C1198.51 1722.14 1198.56 1720.53 1198.23 1718.97C1197.9 1717.42 1197.2 1715.97 1196.18 1714.75V1714.75Z" fill="#CCCCCC"/>
<path d="M1179 1293.34L1173.4 1294.26C1171.86 1294.51 1170.49 1295.37 1169.58 1296.64L1167.11 1300.12L1144.85 1356.17C1143.94 1357.45 1143.58 1359.04 1143.84 1360.6L1146.44 1376.57L1136.59 1661.64C1136.83 1663.11 1137.62 1664.44 1138.79 1665.36L1182.02 1723.58L1183.03 1724.39L1185.21 1726.1C1186.32 1726.97 1187.71 1727.41 1189.12 1727.35L1192.79 1727.18C1193.62 1727.14 1194.44 1726.92 1195.18 1726.54C1195.93 1726.16 1196.58 1725.62 1197.11 1724.96C1197.63 1724.31 1198.02 1723.56 1198.23 1722.74C1198.44 1721.93 1198.48 1721.08 1198.33 1720.26L1185.79 1298.22C1185.54 1296.67 1184.68 1295.28 1183.42 1294.37C1182.15 1293.45 1180.57 1293.08 1179.03 1293.34L1179 1293.34Z" fill="#CCCCCC"/>
<path d="M1169.62 1315.49L1149.9 1375.98L1142.27 1617.6L1172.97 1645.07L1169.62 1315.49Z" fill="#6C63FF"/>
<path d="M1017.1 1684.05C1010.87 1681.12 1003.74 1680.75 997.244 1683.03C990.745 1685.3 985.383 1690.04 982.301 1696.24C981.694 1697.5 981.193 1698.82 980.802 1700.17L888.809 1705.71L875.175 1753.7L1000.38 1732.4C1006.07 1733.59 1012 1732.86 1017.24 1730.31C1022.48 1727.76 1026.73 1723.53 1029.33 1718.29C1032.26 1712.24 1032.69 1705.27 1030.51 1698.9C1028.34 1692.54 1023.74 1687.3 1017.73 1684.35C1017.52 1684.25 1017.31 1684.15 1017.1 1684.05Z" fill="#FFB6B6"/>
<path d="M814.047 1447.36C807.985 1444.86 801.46 1443.71 794.915 1443.98C788.371 1444.24 781.961 1445.93 776.121 1448.91C770.281 1451.9 765.148 1456.12 761.071 1461.28C756.994 1466.44 754.069 1472.42 752.495 1478.83L727.203 1581.66L731.961 1761.56C731.961 1761.56 863.975 1787.07 886.137 1770.67C908.299 1754.28 906.218 1742.08 908.299 1754.28C910.38 1766.48 919.892 1771.61 920.024 1766.75C920.156 1761.9 921.232 1762.73 926.755 1761.26C932.277 1759.8 956.652 1750.76 956.652 1750.76L957.743 1699.46C957.743 1699.46 917.447 1684.08 907.671 1688.67C897.894 1693.26 909.752 1700.87 897.894 1693.26C886.037 1685.64 884.741 1661.61 882.714 1683.27C880.687 1704.93 874.752 1708.96 865.862 1699.33C856.972 1689.7 815.786 1695.85 815.786 1695.85L841.995 1495.87C843.313 1485.81 841.286 1475.6 836.23 1466.82C831.174 1458.05 823.373 1451.2 814.047 1447.36V1447.36Z" fill="#6C63FF"/>
<path d="M1.7966e-05 2043.91C-0.00157181 2044.45 0.102361 2044.98 0.305802 2045.48C0.509242 2045.98 0.808206 2046.43 1.18547 2046.81C1.56273 2047.19 2.01084 2047.49 2.50406 2047.69C2.99728 2047.9 3.52585 2048 4.05937 2048H2443.94C2445.02 2048 2446.05 2047.57 2446.81 2046.8C2447.57 2046.04 2448 2045 2448 2043.91C2448 2042.83 2447.57 2041.79 2446.81 2041.02C2446.05 2040.26 2445.02 2039.83 2443.94 2039.83H4.05916C3.52567 2039.82 2.99714 2039.93 2.50396 2040.13C2.01077 2040.34 1.56266 2040.64 1.18542 2041.02C0.80818 2041.4 0.509236 2041.85 0.305802 2042.35C0.102368 2042.84 -0.00155357 2043.38 1.7966e-05 2043.91V2043.91Z" fill="#CCCCCC"/>
<path d="M2152.99 1159.5H1461.72C1450.51 1159.48 1439.75 1154.99 1431.83 1147.01C1423.9 1139.03 1419.44 1128.2 1419.42 1116.91V1023.11C1419.44 1011.82 1423.9 1001 1431.83 993.016C1439.75 985.033 1450.51 980.543 1461.72 980.53H2152.99C2164.21 980.543 2174.96 985.033 2182.89 993.016C2190.82 1001 2195.28 1011.82 2195.29 1023.11V1116.91C2195.28 1128.2 2190.82 1139.03 2182.89 1147.01C2174.96 1154.99 2164.21 1159.48 2152.99 1159.5V1159.5Z" fill="#E6E6E6"/>
<path d="M1891.34 1053.96H1687.66C1685.25 1053.96 1682.93 1052.99 1681.22 1051.27C1679.51 1049.55 1678.55 1047.22 1678.55 1044.79C1678.55 1042.35 1679.51 1040.02 1681.22 1038.3C1682.93 1036.58 1685.25 1035.61 1687.66 1035.61H1891.34C1893.76 1035.61 1896.07 1036.58 1897.78 1038.3C1899.49 1040.02 1900.45 1042.35 1900.45 1044.79C1900.45 1047.22 1899.49 1049.55 1897.78 1051.27C1896.07 1052.99 1893.76 1053.96 1891.34 1053.96V1053.96Z" fill="white"/>
<path d="M2087.24 1104.42H1685.38C1682.97 1104.42 1680.65 1103.45 1678.94 1101.73C1677.23 1100.01 1676.27 1097.67 1676.27 1095.24C1676.27 1092.81 1677.23 1090.48 1678.94 1088.75C1680.65 1087.03 1682.97 1086.07 1685.38 1086.07H2087.24C2089.65 1086.07 2091.97 1087.03 2093.68 1088.75C2095.39 1090.48 2096.35 1092.81 2096.35 1095.24C2096.35 1097.67 2095.39 1100.01 2093.68 1101.73C2091.97 1103.45 2089.65 1104.42 2087.24 1104.42V1104.42Z" fill="white"/>
<path d="M1579.45 1131.52C1613.19 1131.52 1640.54 1103.98 1640.54 1070.01C1640.54 1036.04 1613.19 1008.51 1579.45 1008.51C1545.72 1008.51 1518.36 1036.04 1518.36 1070.01C1518.36 1103.98 1545.72 1131.52 1579.45 1131.52Z" fill="white"/>
<path d="M1931.28 1399.9H1240C1228.79 1399.89 1218.04 1395.4 1210.11 1387.41C1202.18 1379.43 1197.72 1368.61 1197.71 1357.32V1263.52C1197.72 1252.23 1202.18 1241.4 1210.11 1233.42C1218.04 1225.44 1228.79 1220.95 1240 1220.93H1931.28C1942.49 1220.95 1953.24 1225.44 1961.17 1233.42C1969.1 1241.4 1973.56 1252.23 1973.57 1263.52V1357.32C1973.56 1368.61 1969.1 1379.43 1961.17 1387.41C1953.24 1395.4 1942.49 1399.89 1931.28 1399.9V1399.9Z" fill="#E6E6E6"/>
<path d="M1669.62 1294.36H1465.94C1463.53 1294.36 1461.21 1293.4 1459.5 1291.68C1457.79 1289.96 1456.83 1287.62 1456.83 1285.19C1456.83 1282.76 1457.79 1280.42 1459.5 1278.7C1461.21 1276.98 1463.53 1276.02 1465.94 1276.02H1669.62C1672.04 1276.02 1674.36 1276.98 1676.07 1278.7C1677.77 1280.42 1678.73 1282.76 1678.73 1285.19C1678.73 1287.62 1677.77 1289.96 1676.07 1291.68C1674.36 1293.4 1672.04 1294.36 1669.62 1294.36V1294.36Z" fill="white"/>
<path d="M1865.52 1344.82H1463.67C1461.25 1344.82 1458.93 1343.85 1457.22 1342.13C1455.51 1340.41 1454.55 1338.08 1454.55 1335.65C1454.55 1333.21 1455.51 1330.88 1457.22 1329.16C1458.93 1327.44 1461.25 1326.47 1463.67 1326.47H1865.52C1867.94 1326.47 1870.25 1327.44 1871.96 1329.16C1873.67 1330.88 1874.63 1333.21 1874.63 1335.65C1874.63 1338.08 1873.67 1340.41 1871.96 1342.13C1870.25 1343.85 1867.94 1344.82 1865.52 1344.82V1344.82Z" fill="white"/>
<path d="M1357.74 1371.93C1391.48 1371.93 1418.83 1344.39 1418.83 1310.42C1418.83 1276.45 1391.48 1248.91 1357.74 1248.91C1324 1248.91 1296.65 1276.45 1296.65 1310.42C1296.65 1344.39 1324 1371.93 1357.74 1371.93Z" fill="white"/>
</svg>
