<svg width="2569" height="240" viewBox="0 0 2569 240" fill="none" xmlns="http://www.w3.org/2000/svg">
<path d="M0 52.9044L61.3706 37.7029C122.741 22.6313 245.482 -7.77174 367.652 1.8429C490.108 11.3276 611.707 60.7001 734.163 89.544C856.333 118.258 979.074 126.573 1101.24 117.478C1223.7 108.383 1345.3 81.8782 1467.76 76.941C1589.93 72.0037 1712.67 88.3746 1834.84 94.4812C1957.29 100.588 2078.89 96.1702 2201.35 89.6739C2323.52 83.1775 2446.26 74.6023 2507.63 70.1847L2569 65.8971V240H2507.63C2446.26 240 2323.52 240 2201.35 240C2078.89 240 1957.29 240 1834.84 240C1712.67 240 1589.93 240 1467.76 240C1345.3 240 1223.7 240 1101.24 240C979.074 240 856.333 240 734.163 240C611.707 240 490.108 240 367.652 240C245.482 240 122.741 240 61.3706 240H0V52.9044Z" fill="#6C63FF"/>
</svg>
