<svg width="2569" height="259" viewBox="0 0 2569 259" fill="none" xmlns="http://www.w3.org/2000/svg">
<path d="M0 259L61.3706 252.648C122.741 246.176 245.482 233.471 367.652 229.277C490.108 225.082 611.707 229.396 734.163 222.445C856.333 215.493 979.074 197.036 1101.24 174.144C1223.7 151.133 1345.3 123.566 1467.76 132.915C1589.93 142.383 1712.67 188.646 1834.84 215.014C1957.29 241.382 2078.89 247.854 2201.35 238.026C2323.52 228.198 2446.26 202.31 2507.63 189.246L2569 176.302V0.118286H2507.63C2446.26 0.118286 2323.52 0.118286 2201.35 0.118286C2078.89 0.118286 1957.29 0.118286 1834.84 0.118286C1712.67 0.118286 1589.93 0.118286 1467.76 0.118286C1345.3 0.118286 1223.7 0.118286 1101.24 0.118286C979.074 0.118286 856.333 0.118286 734.163 0.118286C611.707 0.118286 490.108 0.118286 367.652 0.118286C245.482 0.118286 122.741 0.118286 61.3706 0.118286H0V259Z" fill="#6C63FF"/>
</svg>
