<svg width="2573" height="250" viewBox="0 0 2573 250" fill="none" xmlns="http://www.w3.org/2000/svg">
<path d="M0 194.891L61.4661 210.726C122.932 226.426 245.864 258.096 368.225 248.08C490.871 238.2 612.66 186.771 735.306 156.725C857.667 126.815 980.599 118.153 1102.96 127.627C1225.61 137.101 1347.39 164.71 1470.04 169.853C1592.4 174.996 1715.33 157.943 1837.69 151.582C1960.34 145.221 2082.13 149.823 2204.78 156.59C2327.14 163.357 2450.07 172.289 2511.53 176.891L2573 181.357V0H2511.53C2450.07 0 2327.14 0 2204.78 0C2082.13 0 1960.34 0 1837.69 0C1715.33 0 1592.4 0 1470.04 0C1347.39 0 1225.61 0 1102.96 0C980.599 0 857.667 0 735.306 0C612.66 0 490.871 0 368.225 0C245.864 0 122.932 0 61.4661 0H0V194.891Z" fill="#6C63FF"/>
</svg>
