<svg width="2581" height="258" viewBox="0 0 2581 258" fill="none" xmlns="http://www.w3.org/2000/svg">
<g filter="url(#filter0_d_606_37)">
<path d="M4 194.891L65.4661 210.726C126.932 226.426 249.864 258.096 372.225 248.08C494.871 238.2 616.66 186.771 739.306 156.725C861.667 126.815 984.599 118.153 1106.96 127.627C1229.61 137.101 1351.39 164.71 1474.04 169.853C1596.4 174.996 1719.33 157.943 1841.69 151.582C1964.34 145.221 2086.13 149.823 2208.78 156.59C2331.14 163.357 2454.07 172.289 2515.53 176.891L2577 181.357V0H2515.53C2454.07 0 2331.14 0 2208.78 0C2086.13 0 1964.34 0 1841.69 0C1719.33 0 1596.4 0 1474.04 0C1351.39 0 1229.61 0 1106.96 0C984.599 0 861.667 0 739.306 0C616.66 0 494.871 0 372.225 0C249.864 0 126.932 0 65.4661 0H4V194.891Z" fill="#2F2F2F"/>
</g>
<defs>
<filter id="filter0_d_606_37" x="0" y="0" width="2581" height="258" filterUnits="userSpaceOnUse" color-interpolation-filters="sRGB">
<feFlood flood-opacity="0" result="BackgroundImageFix"/>
<feColorMatrix in="SourceAlpha" type="matrix" values="0 0 0 0 0 0 0 0 0 0 0 0 0 0 0 0 0 0 127 0" result="hardAlpha"/>
<feOffset dy="4"/>
<feGaussianBlur stdDeviation="2"/>
<feComposite in2="hardAlpha" operator="out"/>
<feColorMatrix type="matrix" values="0 0 0 0 0 0 0 0 0 0 0 0 0 0 0 0 0 0 0.25 0"/>
<feBlend mode="normal" in2="BackgroundImageFix" result="effect1_dropShadow_606_37"/>
<feBlend mode="normal" in="SourceGraphic" in2="effect1_dropShadow_606_37" result="shape"/>
</filter>
</defs>
</svg>
