<svg width="2581" height="265" viewBox="0 0 2581 265" fill="none" xmlns="http://www.w3.org/2000/svg">
<g filter="url(#filter0_d_606_34)">
<path d="M4 248.304L65.4661 232.785C126.932 217.266 249.864 186.228 372.225 184.366C494.871 182.504 616.66 209.817 739.306 207.086C861.667 204.479 984.599 171.703 1106.96 163.633C1229.61 155.563 1351.39 172.199 1474.04 186.228C1596.4 200.258 1719.33 211.928 1841.69 226.826C1964.34 241.724 2086.13 259.851 2208.78 256.623C2331.14 253.271 2454.07 228.44 2515.53 216.025L2577 203.61V0H2515.53C2454.07 0 2331.14 0 2208.78 0C2086.13 0 1964.34 0 1841.69 0C1719.33 0 1596.4 0 1474.04 0C1351.39 0 1229.61 0 1106.96 0C984.599 0 861.667 0 739.306 0C616.66 0 494.871 0 372.225 0C249.864 0 126.932 0 65.4661 0H4V248.304Z" fill="#6C63FF"/>
</g>
<defs>
<filter id="filter0_d_606_34" x="0" y="0" width="2581" height="265" filterUnits="userSpaceOnUse" color-interpolation-filters="sRGB">
<feFlood flood-opacity="0" result="BackgroundImageFix"/>
<feColorMatrix in="SourceAlpha" type="matrix" values="0 0 0 0 0 0 0 0 0 0 0 0 0 0 0 0 0 0 127 0" result="hardAlpha"/>
<feOffset dy="4"/>
<feGaussianBlur stdDeviation="2"/>
<feComposite in2="hardAlpha" operator="out"/>
<feColorMatrix type="matrix" values="0 0 0 0 0 0 0 0 0 0 0 0 0 0 0 0 0 0 0.25 0"/>
<feBlend mode="normal" in2="BackgroundImageFix" result="effect1_dropShadow_606_34"/>
<feBlend mode="normal" in="SourceGraphic" in2="effect1_dropShadow_606_34" result="shape"/>
</filter>
</defs>
</svg>
