<svg width="600" height="398" viewBox="0 0 600 398" fill="none" xmlns="http://www.w3.org/2000/svg">
<path d="M600 213.167V379.948C599.994 384.471 597.922 388.808 594.239 392.006C590.556 395.204 585.563 397.004 580.355 397.009H433.048L434.416 395.505L598.268 215.077L600 213.167Z" fill="#F2F2F2"/>
<path d="M234.469 154.419H65.3185C63.9325 154.419 62.6032 154.897 61.6232 155.748C60.6431 156.599 60.0925 157.754 60.0925 158.957C60.0925 160.161 60.6431 161.315 61.6232 162.166C62.6032 163.018 63.9325 163.496 65.3185 163.496H234.469C235.855 163.496 237.184 163.018 238.164 162.166C239.144 161.315 239.695 160.161 239.695 158.957C239.695 157.754 239.144 156.599 238.164 155.748C237.184 154.897 235.855 154.419 234.469 154.419Z" fill="#E6E6E6"/>
<path d="M117.764 128.97H65.3185C63.9325 128.97 62.6032 129.448 61.6232 130.3C60.6431 131.151 60.0925 132.305 60.0925 133.509C60.0925 134.712 60.6431 135.867 61.6232 136.718C62.6032 137.569 63.9325 138.047 65.3185 138.047H117.764C119.15 138.047 120.479 137.569 121.459 136.718C122.439 135.867 122.99 134.712 122.99 133.509C122.99 132.305 122.439 131.151 121.459 130.3C120.479 129.448 119.15 128.97 117.764 128.97H117.764Z" fill="#E6E6E6"/>
<path d="M580.355 0H19.645C14.4368 0.00544624 9.44362 1.80468 5.76082 5.00303C2.07802 8.20138 0.00627116 12.5377 0 17.0609V379.948C0.00627116 384.472 2.07802 388.808 5.76082 392.006C9.44362 395.205 14.4368 397.004 19.645 397.009H580.355C585.563 397.004 590.556 395.205 594.239 392.006C597.922 388.808 599.994 384.472 600 379.948V17.0609C599.994 12.5377 597.922 8.20138 594.239 5.00303C590.556 1.80468 585.563 0.00544624 580.355 0V0ZM598.268 379.948C598.268 381.991 597.805 384.014 596.905 385.902C596.005 387.789 594.685 389.504 593.022 390.949C591.358 392.394 589.383 393.539 587.21 394.321C585.037 395.103 582.707 395.506 580.355 395.506H19.645C14.8941 395.506 10.3377 393.866 6.97833 390.949C3.61891 388.031 1.7316 384.074 1.7316 379.948V118.558C1.7316 87.5134 15.932 57.7402 41.2089 35.7882C66.4858 13.8363 100.769 1.50382 136.516 1.50382H580.355C582.707 1.50382 585.037 1.90622 587.21 2.68804C589.383 3.46985 591.358 4.61578 593.022 6.06038C594.685 7.50499 596.005 9.21998 596.905 11.1074C597.805 12.9949 598.268 15.0179 598.268 17.0609V379.948Z" fill="#E6E6E6"/>
<path d="M545.36 65.6183H54.6842C54.4545 65.6183 54.2343 65.5391 54.0719 65.3981C53.9096 65.2571 53.8184 65.0658 53.8184 64.8664C53.8184 64.667 53.9096 64.4758 54.0719 64.3347C54.2343 64.1937 54.4545 64.1145 54.6842 64.1145H545.36C545.59 64.1145 545.81 64.1937 545.972 64.3347C546.135 64.4758 546.226 64.667 546.226 64.8664C546.226 65.0658 546.135 65.2571 545.972 65.3981C545.81 65.5391 545.59 65.6183 545.36 65.6183Z" fill="#E6E6E6"/>
<path d="M79.2336 43.0456C83.2773 43.0456 86.5553 40.1353 86.5553 36.5452C86.5553 32.9552 83.2773 30.0449 79.2336 30.0449C75.1899 30.0449 71.9119 32.9552 71.9119 36.5452C71.9119 40.1353 75.1899 43.0456 79.2336 43.0456Z" fill="#E6E6E6"/>
<path d="M104.527 43.0456C108.57 43.0456 111.849 40.1353 111.849 36.5452C111.849 32.9552 108.57 30.0449 104.527 30.0449C100.483 30.0449 97.2051 32.9552 97.2051 36.5452C97.2051 40.1353 100.483 43.0456 104.527 43.0456Z" fill="#E6E6E6"/>
<path d="M129.82 43.0456C133.864 43.0456 137.142 40.1353 137.142 36.5452C137.142 32.9552 133.864 30.0449 129.82 30.0449C125.777 30.0449 122.499 32.9552 122.499 36.5452C122.499 40.1353 125.777 43.0456 129.82 43.0456Z" fill="#E6E6E6"/>
<path d="M158.661 41.6826C158.546 41.6827 158.432 41.6628 158.325 41.6239C158.219 41.5851 158.123 41.5281 158.042 41.4564L153.102 37.0705C152.944 36.9301 152.855 36.7413 152.855 36.5448C152.855 36.3482 152.944 36.1595 153.102 36.019L158.042 31.6335C158.121 31.5618 158.216 31.5044 158.321 31.4647C158.426 31.425 158.539 31.4038 158.653 31.4022C158.768 31.4006 158.881 31.4187 158.988 31.4555C159.094 31.4923 159.191 31.547 159.272 31.6165C159.354 31.686 159.419 31.7688 159.464 31.8603C159.509 31.9518 159.532 32.05 159.533 32.1494C159.534 32.2487 159.512 32.3472 159.468 32.4392C159.425 32.5311 159.361 32.6146 159.28 32.685L154.932 36.5448L159.28 40.4049C159.399 40.5107 159.48 40.6447 159.512 40.7901C159.544 40.9355 159.525 41.0858 159.459 41.2223C159.393 41.3587 159.282 41.4751 159.14 41.557C158.998 41.6389 158.832 41.6826 158.661 41.6826V41.6826Z" fill="#E6E6E6"/>
<path d="M166.963 41.6829C166.792 41.6829 166.626 41.6392 166.484 41.5573C166.342 41.4754 166.231 41.3589 166.165 41.2225C166.099 41.0861 166.081 40.9358 166.112 40.7904C166.144 40.645 166.225 40.511 166.344 40.4052L170.692 36.545L166.344 32.6853C166.186 32.5423 166.099 32.3509 166.103 32.1528C166.107 31.9547 166.2 31.7658 166.363 31.6272C166.526 31.4887 166.746 31.4116 166.974 31.4129C167.202 31.4141 167.421 31.4935 167.582 31.6338L172.522 36.0193C172.68 36.1597 172.769 36.3485 172.769 36.545C172.769 36.7416 172.68 36.9303 172.522 37.0708L167.582 41.4567C167.501 41.5284 167.405 41.5854 167.299 41.6242C167.192 41.6631 167.078 41.683 166.963 41.6829V41.6829Z" fill="#E6E6E6"/>
<path d="M501.603 30.7976H492.417C492.168 30.7975 491.922 30.8401 491.692 30.9228C491.462 31.0055 491.253 31.1268 491.076 31.2798C490.9 31.4327 490.761 31.6142 490.665 31.8141C490.57 32.0139 490.521 32.228 490.521 32.4443V40.4296C490.521 40.6459 490.57 40.86 490.665 41.0598C490.761 41.2596 490.9 41.4412 491.076 41.5941C491.253 41.747 491.462 41.8683 491.692 41.9511C491.922 42.0338 492.168 42.0763 492.417 42.0763H501.603C502.107 42.0767 502.591 41.9036 502.948 41.5949C503.305 41.2862 503.506 40.8671 503.508 40.4296V32.4443C503.506 32.0067 503.305 31.5877 502.948 31.279C502.591 30.9703 502.107 30.7972 501.603 30.7976Z" fill="#E6E6E6"/>
<path d="M479.092 30.7976H469.906C469.657 30.7975 469.411 30.8401 469.181 30.9228C468.951 31.0055 468.742 31.1268 468.565 31.2798C468.389 31.4327 468.25 31.6142 468.154 31.8141C468.059 32.0139 468.01 32.228 468.01 32.4443V40.4296C468.01 40.6459 468.059 40.86 468.154 41.0598C468.25 41.2596 468.389 41.4412 468.565 41.5941C468.742 41.747 468.951 41.8683 469.181 41.9511C469.411 42.0338 469.657 42.0763 469.906 42.0763H479.092C479.596 42.0767 480.08 41.9036 480.437 41.5949C480.794 41.2862 480.995 40.8671 480.997 40.4296V32.4443C480.995 32.0067 480.794 31.5877 480.437 31.279C480.08 30.9703 479.596 30.7972 479.092 30.7976V30.7976Z" fill="#E6E6E6"/>
<path d="M522.816 31.1733H513.63C513.38 31.1733 513.134 31.2158 512.904 31.2985C512.674 31.3813 512.465 31.5026 512.289 31.6555C512.112 31.8084 511.973 31.99 511.878 32.1898C511.782 32.3896 511.733 32.6038 511.733 32.82V40.8053C511.733 41.0216 511.782 41.2357 511.878 41.4356C511.973 41.6354 512.112 41.8169 512.289 41.9699C512.465 42.1228 512.674 42.2441 512.904 42.3268C513.134 42.4095 513.38 42.4521 513.63 42.452H522.816C523.319 42.4524 523.803 42.2793 524.16 41.9706C524.517 41.6619 524.719 41.2429 524.72 40.8053V32.82C524.719 32.3825 524.517 31.9634 524.16 31.6547C523.803 31.346 523.319 31.1729 522.816 31.1733V31.1733Z" fill="#E6E6E6"/>
<path d="M336.736 34.2112H263.307C262.694 34.2112 262.106 34.4227 261.673 34.7992C261.239 35.1757 260.996 35.6863 260.996 36.2188C260.996 36.7512 261.239 37.2619 261.673 37.6384C262.106 38.0149 262.694 38.2264 263.307 38.2264H336.736C337.349 38.2264 337.937 38.0149 338.37 37.6384C338.804 37.2619 339.048 36.7512 339.048 36.2188C339.048 35.6863 338.804 35.1757 338.37 34.7992C337.937 34.4227 337.349 34.2112 336.736 34.2112V34.2112Z" fill="#E6E6E6"/>
<path d="M139.92 308.619L96.009 307.414C89.9188 307.247 83.07 307.255 78.7261 309.989C73.796 313.091 74.5425 318.587 78.6358 322.152C82.7292 325.717 89.2653 327.753 95.6803 329.409C129.762 338.207 167.48 339.993 204.104 338.002C240.727 336.011 276.597 330.384 312.29 324.776C315.675 324.244 319.512 323.478 320.893 321.433C322.228 319.453 320.481 317.067 317.767 315.787C315.052 314.508 311.611 314.077 308.292 313.696C248.164 306.834 187.386 305.329 126.906 309.203" fill="#6C63FF"/>
<path d="M218.814 279.29V270.267C211.274 270.36 184.294 270.2 177.256 270.267C176.732 301.803 173.521 295.626 203.271 295.748C204.638 295.753 205.948 296.227 206.914 297.068C207.879 297.909 208.423 299.047 208.425 300.235V300.37C208.424 301.56 207.88 302.7 206.912 303.541C205.943 304.382 204.63 304.855 203.26 304.855H177.256V313.878H218.814C218.872 313.848 218.772 305.165 218.814 304.855C220.571 278.715 217.094 288.116 191.831 287.068C190.7 287.018 189.635 286.592 188.856 285.879C188.077 285.166 187.644 284.22 187.645 283.237V283.125C187.645 282.108 188.11 281.132 188.938 280.413C189.766 279.694 190.889 279.29 192.06 279.29H218.814Z" fill="white"/>
<path d="M269.896 279.29V270.267C262.356 270.36 235.376 270.2 228.338 270.267C227.809 302.077 224.547 295.515 255.136 295.753C256.299 295.763 257.411 296.172 258.229 296.89C259.047 297.608 259.507 298.577 259.507 299.587C259.507 300.061 259.507 300.546 259.507 301.021C259.506 301.525 259.392 302.024 259.17 302.489C258.948 302.954 258.623 303.376 258.213 303.732C257.803 304.088 257.316 304.371 256.781 304.563C256.245 304.756 255.671 304.855 255.091 304.855H228.338V313.878H269.896C269.954 313.848 269.854 305.165 269.896 304.855C271.653 278.715 268.176 288.116 242.913 287.068C241.782 287.018 240.717 286.592 239.938 285.879C239.159 285.166 238.726 284.22 238.727 283.237V283.125C238.727 282.108 239.192 281.132 240.02 280.413C240.848 279.694 241.971 279.29 243.142 279.29H269.896Z" fill="white"/>
<path d="M165.134 279.29V270.267H123.576C123.546 278.315 123.597 299.616 123.576 307.863C115.43 319.84 161.708 311.548 165.137 313.881C165.134 313.878 165.134 304.855 165.134 304.855C133.514 304.712 132.72 309.852 133.737 284.982C133.798 283.455 134.539 282.008 135.804 280.947C137.07 279.885 138.76 279.291 140.519 279.29C149.661 279.29 165.134 279.29 165.134 279.29Z" fill="white"/>
<path d="M247.279 200.845L203.369 199.84C197.278 199.701 190.43 199.708 186.086 201.986C181.156 204.572 181.902 209.154 185.995 212.125C190.089 215.097 196.625 216.795 203.04 218.175C237.121 225.508 274.84 226.997 311.463 225.338C348.087 223.679 383.957 218.988 419.65 214.313C423.035 213.869 426.872 213.231 428.252 211.526C429.588 209.876 427.84 207.886 425.126 206.82C422.412 205.754 418.971 205.394 415.651 205.077C355.422 199.355 294.74 198.102 234.266 201.331" fill="#6C63FF"/>
<path d="M239.593 161.24C238.885 175.17 244.781 179.555 224.441 177.78C223.066 169.47 230.035 157.938 214.052 160.866C217.254 166.894 205.132 212.63 224.438 204.472C225.522 190.731 218.376 184.704 239.593 186.807C241.295 195.301 233.353 207.801 249.982 204.85C246.78 198.818 258.902 153.086 239.593 161.24Z" fill="white"/>
<path d="M346.086 161.24C347.512 162.005 333.021 175.319 332.708 176.41C332.274 175.479 318.442 162.452 320.112 161.241C300.866 152.981 312.861 198.983 309.719 204.853C309.723 204.851 320.112 204.851 320.112 204.851V176.28C334.716 193.385 332.004 190.507 346.087 175.44L346.086 204.851C365.332 213.113 353.338 167.106 356.48 161.238C356.476 161.24 346.086 161.24 346.086 161.24Z" fill="white"/>
<path d="M300.199 161.24H258.64C256.198 173.888 264.272 169.646 274.226 170.262L274.225 204.851H284.614V170.263C294.522 169.678 302.671 173.833 300.199 161.24Z" fill="white"/>
<path d="M375.523 195.828C373.124 184.393 373.124 172.675 375.523 161.24H365.134C365.194 166.956 365.115 190.025 365.121 200.574C365.121 201.712 365.641 202.804 366.567 203.61C367.494 204.415 368.751 204.868 370.062 204.869C380.529 204.881 400.512 204.814 406.692 204.851L406.692 195.828H375.523Z" fill="white"/>
<path d="M110.113 197.332H67.8847C65.8181 197.332 63.8361 198.045 62.3748 199.314C60.9135 200.583 60.0925 202.304 60.0925 204.099C60.0925 205.894 60.9135 207.615 62.3748 208.884C63.8361 210.153 65.8181 210.866 67.8847 210.866H110.113C112.18 210.866 114.162 210.153 115.623 208.884C117.085 207.615 117.906 205.894 117.906 204.099C117.906 202.304 117.085 200.583 115.623 199.314C114.162 198.045 112.18 197.332 110.113 197.332H110.113Z" fill="#E6E6E6"/>
<path d="M492.98 389.165L484.408 389.164L480.33 360.449L492.982 360.45L492.98 389.165Z" fill="#FFB6B6"/>
<path d="M493.282 396.932L466.921 396.931V396.641C466.921 394.278 468.002 392.012 469.926 390.341C471.851 388.67 474.46 387.731 477.181 387.731H477.182L481.997 384.558L490.981 387.731L493.282 387.731L493.282 396.932Z" fill="#6C63FF"/>
<path d="M523.283 389.165L514.711 389.164L510.633 360.449L523.285 360.45L523.283 389.165Z" fill="#FFB6B6"/>
<path d="M523.585 396.932L497.224 396.931V396.641C497.224 394.278 498.305 392.012 500.229 390.341C502.154 388.67 504.763 387.731 507.484 387.731H507.485L512.3 384.558L521.284 387.731L523.585 387.731L523.585 396.932Z" fill="#6C63FF"/>
<path d="M471.636 232.702C471.636 232.702 463.388 254.701 464.91 257.597C466.433 260.492 469.03 258.237 466.433 260.492C463.835 262.748 461.568 260.35 464 264.181C466.433 268.012 470.118 299.546 471.738 301.073C473.359 302.599 475.588 302.64 473.608 304.124C471.628 305.607 469.03 302.599 471.628 305.607C474.225 308.615 481.117 377.998 481.117 377.998H494.581C494.581 377.998 497.935 374.641 496.037 372.456C494.138 370.272 496.203 369.429 496.037 367.971C495.87 366.512 496.501 363.367 496.619 361.932C496.736 360.497 499.011 326.308 493.545 306.559L503.513 268.954L508.497 314.404C508.497 314.404 502.943 352.528 508.497 364.783C508.497 364.783 504.019 368.022 506.005 369.898C507.991 371.775 509.723 370.272 507.991 371.775C506.26 373.279 510.589 378.543 510.589 378.543L525.307 377.791L533.638 306.559C533.638 306.559 535.042 299.13 533.638 297.857C532.234 296.584 532.234 301.096 532.234 296.584V290.569C532.234 290.569 538.511 253.571 538.403 251.393C538.294 249.214 527.905 233.424 527.905 233.424L471.636 232.702Z" fill="#6C63FF"/>
<path d="M515.168 143.726L493.676 142.442L487.245 151.248L471.757 156.717V200.098C473.369 204.298 474.202 208.694 474.225 213.122C474.166 221.764 471.608 231.945 472.493 234.175C481.151 255.981 528.77 234.175 528.77 234.175L527.905 210.866L529.08 158.187L519.349 151.447L515.168 143.726Z" fill="#E6E6E6"/>
<path d="M470.764 242.119L469.282 228.403L460.142 228.045L462.303 242.498C461.748 243.208 461.433 244.038 461.392 244.896C461.352 245.753 461.587 246.603 462.072 247.35C462.557 248.097 463.273 248.712 464.138 249.126C465.004 249.54 465.985 249.735 466.972 249.691C467.958 249.647 468.911 249.365 469.723 248.876C470.535 248.387 471.174 247.712 471.568 246.925C471.962 246.138 472.095 245.272 471.953 244.423C471.811 243.574 471.399 242.776 470.764 242.119L470.764 242.119Z" fill="#FFB6B6"/>
<path d="M475.262 155.56L475.009 155.598C472.652 155.944 470.428 156.785 468.529 158.047C466.631 159.308 465.115 160.952 464.113 162.837C461.495 167.753 452.996 200.07 456.722 204.943C459.612 208.723 458.91 207.985 457.551 210.836C456.193 213.687 454.005 210.645 455.798 215.17C457.591 219.695 459.562 219.049 457.897 220.798C456.233 222.546 454.526 222.203 456.144 225.132C457.763 228.06 457.5 229.048 457.806 230.151C458.112 231.254 457.846 239.01 457.846 239.01C457.846 239.01 467.609 238.366 472.467 240.383C472.467 240.383 469.756 232.55 471.289 231.296C472.822 230.042 474.661 229.89 473.348 228.065C472.036 226.239 469.059 226.162 472.299 225.251C475.539 224.339 474.495 207.99 474.495 207.99C479.831 195.854 477.723 175.892 475.262 155.56Z" fill="#E6E6E6"/>
<path d="M534.132 243.098L534.815 229.334L543.923 228.576L542.604 243.105C543.199 243.79 543.562 244.606 543.653 245.46C543.743 246.314 543.557 247.174 543.116 247.941C542.675 248.709 541.996 249.355 541.156 249.806C540.315 250.256 539.347 250.495 538.359 250.494C537.371 250.493 536.403 250.253 535.564 249.8C534.725 249.348 534.047 248.701 533.608 247.933C533.169 247.164 532.985 246.305 533.078 245.451C533.17 244.596 533.535 243.782 534.132 243.098V243.098Z" fill="#FFB6B6"/>
<path d="M524.611 156.846L524.867 156.873C527.241 157.116 529.51 157.858 531.48 159.035C533.449 160.211 535.059 161.787 536.169 163.626C539.069 168.421 548.243 200.897 545.996 205.354C543.902 209.51 543.988 208.488 545.511 211.276C547.033 214.064 549.041 210.93 547.513 215.528C545.985 220.125 543.98 219.567 545.744 221.24C547.507 222.913 549.193 222.496 547.746 225.492C546.3 228.487 546.62 229.462 546.379 230.577C546.137 231.692 546.853 239.426 546.853 239.426C546.853 239.426 537.065 239.212 532.33 241.439C532.33 241.439 534.582 233.497 532.979 232.311C531.375 231.126 529.53 231.055 530.735 229.175C531.939 227.294 534.908 227.087 531.619 226.318C528.33 225.55 528.423 209.176 528.423 209.176L524.611 156.846Z" fill="#E6E6E6"/>
<path d="M504.95 139.684C514.208 139.684 521.714 133.166 521.714 125.126C521.714 117.085 514.208 110.567 504.95 110.567C495.691 110.567 488.186 117.085 488.186 125.126C488.186 133.166 495.691 139.684 504.95 139.684Z" fill="#FFB6B6"/>
<path d="M516.616 137.588C518.948 136.003 519.174 132.983 521.164 131.079C524.49 127.895 526.053 124.47 524.311 120.698C522.769 117.362 523.097 113.261 519.777 111.114C521.408 110.601 521.791 109.537 520.353 109.517C519.383 109.504 515.767 111.114 517.507 109.108C519.247 107.102 515.953 107.894 516.171 107.073C516.389 106.252 517.786 105.797 518.402 106.448C517.881 105.987 517.247 105.634 516.546 105.418C515.845 105.203 515.097 105.128 514.358 105.202C513.619 105.275 512.91 105.494 512.283 105.842C511.657 106.19 511.13 106.657 510.743 107.209C508.782 104.657 506.701 102.901 503.701 104.52C500.754 106.111 500.793 108.077 497.624 107.605C496.134 107.382 495.993 109.827 494.976 110.797C494.505 111.313 493.894 111.718 493.197 111.977C492.5 112.235 491.74 112.337 490.985 112.275C489.5 112.031 488.364 110.424 489.197 109.328L485.696 116.263L484.286 114.761C482.044 116.029 482.78 119.34 485.037 120.589C487.293 121.838 490.225 121.571 492.824 121.017C495.952 120.351 499.181 120.118 502.392 120.328C507.298 120.93 510.715 126.023 508.899 130.027C510.783 128.419 514.27 129.753 515.247 131.885C516.223 134.016 515.507 136.418 514.783 138.625" fill="#6C63FF"/>
</svg>
